<svg width="98" height="44" viewBox="0 0 98 44" fill="none" xmlns="http://www.w3.org/2000/svg">
<rect width="98" height="44" rx="11" fill="#D009C5"/>
<path d="M11.4091 27.5V15.8636H15.3409C16.25 15.8636 16.9962 16.0189 17.5795 16.3295C18.1629 16.6364 18.5947 17.0587 18.875 17.5966C19.1553 18.1345 19.2955 18.7462 19.2955 19.4318C19.2955 20.1174 19.1553 20.7254 18.875 21.2557C18.5947 21.786 18.1648 22.2027 17.5852 22.5057C17.0057 22.8049 16.2652 22.9545 15.3636 22.9545H12.1818V21.6818H15.3182C15.9394 21.6818 16.4394 21.5909 16.8182 21.4091C17.2008 21.2273 17.4773 20.9697 17.6477 20.6364C17.822 20.2992 17.9091 19.8977 17.9091 19.4318C17.9091 18.9659 17.822 18.5587 17.6477 18.2102C17.4735 17.8617 17.1951 17.5928 16.8125 17.4034C16.4299 17.2102 15.9242 17.1136 15.2955 17.1136H12.8182V27.5H11.4091ZM16.8864 22.2727L19.75 27.5H18.1136L15.2955 22.2727H16.8864ZM25.027 27.6818C24.1861 27.6818 23.4607 27.4962 22.8509 27.125C22.2448 26.75 21.777 26.2273 21.4474 25.5568C21.1217 24.8826 20.9588 24.0985 20.9588 23.2045C20.9588 22.3106 21.1217 21.5227 21.4474 20.8409C21.777 20.1553 22.2353 19.6212 22.8224 19.2386C23.4134 18.8523 24.1027 18.6591 24.8906 18.6591C25.3452 18.6591 25.794 18.7348 26.2372 18.8864C26.6804 19.0379 27.0838 19.2841 27.4474 19.625C27.8111 19.9621 28.1009 20.4091 28.3168 20.9659C28.5327 21.5227 28.6406 22.2083 28.6406 23.0227V23.5909H21.9134V22.4318H27.277C27.277 21.9394 27.1785 21.5 26.9815 21.1136C26.7884 20.7273 26.5118 20.4223 26.152 20.1989C25.7959 19.9754 25.3755 19.8636 24.8906 19.8636C24.3565 19.8636 23.8944 19.9962 23.5043 20.2614C23.1179 20.5227 22.8205 20.8636 22.6122 21.2841C22.4039 21.7045 22.2997 22.1553 22.2997 22.6364V23.4091C22.2997 24.0682 22.4134 24.6269 22.6406 25.0852C22.8717 25.5398 23.1918 25.8864 23.6009 26.125C24.0099 26.3598 24.4853 26.4773 25.027 26.4773C25.3793 26.4773 25.6974 26.428 25.9815 26.3295C26.2694 26.2273 26.5175 26.0758 26.7259 25.875C26.9342 25.6705 27.0952 25.4167 27.2088 25.1136L28.5043 25.4773C28.3679 25.9167 28.1387 26.303 27.8168 26.6364C27.4948 26.9659 27.0971 27.2235 26.6236 27.4091C26.1501 27.5909 25.6179 27.6818 25.027 27.6818ZM34.2031 30.9545C33.5554 30.9545 32.9986 30.8712 32.5327 30.7045C32.0668 30.5417 31.6785 30.3258 31.3679 30.0568C31.0611 29.7917 30.8168 29.5076 30.6349 29.2045L31.7031 28.4545C31.8243 28.6136 31.9777 28.7955 32.1634 29C32.349 29.2083 32.6027 29.3883 32.9247 29.5398C33.2505 29.6951 33.6766 29.7727 34.2031 29.7727C34.9077 29.7727 35.4891 29.6023 35.9474 29.2614C36.4058 28.9205 36.6349 28.3864 36.6349 27.6591V25.8864H36.5213C36.4228 26.0455 36.2827 26.2424 36.1009 26.4773C35.9228 26.7083 35.6652 26.9148 35.3281 27.0966C34.9948 27.2746 34.544 27.3636 33.9759 27.3636C33.2713 27.3636 32.6387 27.197 32.0781 26.8636C31.5213 26.5303 31.08 26.0455 30.7543 25.4091C30.4323 24.7727 30.2713 24 30.2713 23.0909C30.2713 22.197 30.4285 21.4186 30.7429 20.7557C31.0573 20.089 31.4948 19.5739 32.0554 19.2102C32.616 18.8428 33.2637 18.6591 33.9986 18.6591C34.5668 18.6591 35.0175 18.7538 35.3509 18.9432C35.688 19.1288 35.9455 19.3409 36.1236 19.5795C36.3054 19.8144 36.4455 20.0076 36.544 20.1591H36.6804V18.7727H37.9759V27.75C37.9759 28.5 37.8054 29.1098 37.4645 29.5795C37.1274 30.053 36.6728 30.3996 36.1009 30.6193C35.5327 30.8428 34.9001 30.9545 34.2031 30.9545ZM34.1577 26.1591C34.6955 26.1591 35.1501 26.036 35.5213 25.7898C35.8925 25.5436 36.1747 25.1894 36.3679 24.7273C36.5611 24.2652 36.6577 23.7121 36.6577 23.0682C36.6577 22.4394 36.563 21.8845 36.3736 21.4034C36.1842 20.9223 35.9039 20.5455 35.5327 20.2727C35.1615 20 34.7031 19.8636 34.1577 19.8636C33.5895 19.8636 33.116 20.0076 32.7372 20.2955C32.3622 20.5833 32.08 20.9697 31.8906 21.4545C31.705 21.9394 31.6122 22.4773 31.6122 23.0682C31.6122 23.6742 31.7069 24.2102 31.8963 24.6761C32.0895 25.1383 32.3736 25.5019 32.7486 25.767C33.1274 26.0284 33.5971 26.1591 34.1577 26.1591ZM40.4304 27.5V18.7727H41.7713V27.5H40.4304ZM41.1122 17.3182C40.8509 17.3182 40.6255 17.2292 40.4361 17.0511C40.2505 16.8731 40.1577 16.6591 40.1577 16.4091C40.1577 16.1591 40.2505 15.9451 40.4361 15.767C40.6255 15.589 40.8509 15.5 41.1122 15.5C41.3736 15.5 41.5971 15.589 41.7827 15.767C41.9721 15.9451 42.0668 16.1591 42.0668 16.4091C42.0668 16.6591 41.9721 16.8731 41.7827 17.0511C41.5971 17.2292 41.3736 17.3182 41.1122 17.3182ZM50.4091 20.7273L49.2045 21.0682C49.1288 20.8674 49.017 20.6723 48.8693 20.483C48.7254 20.2898 48.5284 20.1307 48.2784 20.0057C48.0284 19.8807 47.7083 19.8182 47.3182 19.8182C46.7841 19.8182 46.339 19.9413 45.983 20.1875C45.6307 20.4299 45.4545 20.7386 45.4545 21.1136C45.4545 21.447 45.5758 21.7102 45.8182 21.9034C46.0606 22.0966 46.4394 22.2576 46.9545 22.3864L48.25 22.7045C49.0303 22.8939 49.6117 23.1837 49.9943 23.5739C50.3769 23.9602 50.5682 24.4583 50.5682 25.0682C50.5682 25.5682 50.4242 26.0152 50.1364 26.4091C49.8523 26.803 49.4545 27.1136 48.9432 27.3409C48.4318 27.5682 47.8371 27.6818 47.1591 27.6818C46.2689 27.6818 45.5322 27.4886 44.9489 27.1023C44.3655 26.7159 43.9962 26.1515 43.8409 25.4091L45.1136 25.0909C45.2348 25.5606 45.464 25.9129 45.8011 26.1477C46.142 26.3826 46.5871 26.5 47.1364 26.5C47.7614 26.5 48.2576 26.3674 48.625 26.1023C48.9962 25.8333 49.1818 25.5114 49.1818 25.1364C49.1818 24.8333 49.0758 24.5795 48.8636 24.375C48.6515 24.1667 48.3258 24.0114 47.8864 23.9091L46.4318 23.5682C45.6326 23.3788 45.0455 23.0852 44.6705 22.6875C44.2992 22.286 44.1136 21.7841 44.1136 21.1818C44.1136 20.6894 44.2519 20.2538 44.5284 19.875C44.8087 19.4962 45.1894 19.1989 45.6705 18.983C46.1553 18.767 46.7045 18.6591 47.3182 18.6591C48.1818 18.6591 48.8598 18.8485 49.3523 19.2273C49.8485 19.6061 50.2008 20.1061 50.4091 20.7273ZM56.3821 18.7727V19.9091H51.8594V18.7727H56.3821ZM53.1776 16.6818H54.5185V25C54.5185 25.3788 54.5734 25.6629 54.6832 25.8523C54.7969 26.0379 54.9408 26.1629 55.1151 26.2273C55.2931 26.2879 55.4806 26.3182 55.6776 26.3182C55.8253 26.3182 55.9465 26.3106 56.0412 26.2955C56.1359 26.2765 56.2116 26.2614 56.2685 26.25L56.5412 27.4545C56.4503 27.4886 56.3234 27.5227 56.1605 27.5568C55.9976 27.5947 55.7912 27.6136 55.5412 27.6136C55.1624 27.6136 54.7912 27.5322 54.4276 27.3693C54.0677 27.2064 53.7685 26.9583 53.5298 26.625C53.295 26.2917 53.1776 25.8712 53.1776 25.3636V16.6818ZM58.3991 27.5V18.7727H59.6946V20.0909H59.7855C59.9446 19.6591 60.2325 19.3087 60.6491 19.0398C61.0658 18.7708 61.5355 18.6364 62.0582 18.6364C62.1567 18.6364 62.2798 18.6383 62.4276 18.642C62.5753 18.6458 62.687 18.6515 62.7628 18.6591V20.0227C62.7173 20.0114 62.6132 19.9943 62.4503 19.9716C62.2912 19.9451 62.1226 19.9318 61.9446 19.9318C61.5204 19.9318 61.1416 20.0208 60.8082 20.1989C60.4787 20.3731 60.2173 20.6155 60.0241 20.9261C59.8348 21.233 59.7401 21.5833 59.7401 21.9773V27.5H58.3991ZM66.9205 27.7045C66.3674 27.7045 65.8655 27.6004 65.4148 27.392C64.964 27.1799 64.6061 26.875 64.3409 26.4773C64.0758 26.0758 63.9432 25.5909 63.9432 25.0227C63.9432 24.5227 64.0417 24.1174 64.2386 23.8068C64.4356 23.4924 64.6989 23.2462 65.0284 23.0682C65.358 22.8902 65.7216 22.7576 66.1193 22.6705C66.5208 22.5795 66.9242 22.5076 67.3295 22.4545C67.8598 22.3864 68.2898 22.3352 68.6193 22.3011C68.9527 22.2633 69.1951 22.2008 69.3466 22.1136C69.5019 22.0265 69.5795 21.875 69.5795 21.6591V21.6136C69.5795 21.053 69.4261 20.6174 69.1193 20.3068C68.8163 19.9962 68.3561 19.8409 67.7386 19.8409C67.0985 19.8409 66.5966 19.9811 66.233 20.2614C65.8693 20.5417 65.6136 20.8409 65.4659 21.1591L64.1932 20.7045C64.4205 20.1742 64.7235 19.7614 65.1023 19.4659C65.4848 19.1667 65.9015 18.9583 66.3523 18.8409C66.8068 18.7197 67.2538 18.6591 67.6932 18.6591C67.9735 18.6591 68.2955 18.6932 68.6591 18.7614C69.0265 18.8258 69.3807 18.9602 69.7216 19.1648C70.0663 19.3693 70.3523 19.678 70.5795 20.0909C70.8068 20.5038 70.9205 21.0568 70.9205 21.75V27.5H69.5795V26.3182H69.5114C69.4205 26.5076 69.2689 26.7102 69.0568 26.9261C68.8447 27.142 68.5625 27.3258 68.2102 27.4773C67.858 27.6288 67.428 27.7045 66.9205 27.7045ZM67.125 26.5C67.6553 26.5 68.1023 26.3958 68.4659 26.1875C68.8333 25.9792 69.1098 25.7102 69.2955 25.3807C69.4848 25.0511 69.5795 24.7045 69.5795 24.3409V23.1136C69.5227 23.1818 69.3977 23.2443 69.2045 23.3011C69.0152 23.3542 68.7955 23.4015 68.5455 23.4432C68.2992 23.4811 68.0587 23.5152 67.8239 23.5455C67.5928 23.572 67.4053 23.5947 67.2614 23.6136C66.9129 23.6591 66.5871 23.733 66.2841 23.8352C65.9848 23.9337 65.7424 24.0833 65.5568 24.2841C65.375 24.4811 65.2841 24.75 65.2841 25.0909C65.2841 25.5568 65.4564 25.9091 65.8011 26.1477C66.1496 26.3826 66.5909 26.5 67.125 26.5ZM77.1634 18.7727V19.9091H72.6406V18.7727H77.1634ZM73.9588 16.6818H75.2997V25C75.2997 25.3788 75.3546 25.6629 75.4645 25.8523C75.5781 26.0379 75.7221 26.1629 75.8963 26.2273C76.0743 26.2879 76.2618 26.3182 76.4588 26.3182C76.6065 26.3182 76.7277 26.3106 76.8224 26.2955C76.9171 26.2765 76.9929 26.2614 77.0497 26.25L77.3224 27.4545C77.2315 27.4886 77.1046 27.5227 76.9418 27.5568C76.7789 27.5947 76.5724 27.6136 76.3224 27.6136C75.9437 27.6136 75.5724 27.5322 75.2088 27.3693C74.849 27.2064 74.5497 26.9583 74.3111 26.625C74.0762 26.2917 73.9588 25.8712 73.9588 25.3636V16.6818ZM82.7457 27.6818C81.9048 27.6818 81.1795 27.4962 80.5696 27.125C79.9635 26.75 79.4957 26.2273 79.1662 25.5568C78.8404 24.8826 78.6776 24.0985 78.6776 23.2045C78.6776 22.3106 78.8404 21.5227 79.1662 20.8409C79.4957 20.1553 79.9541 19.6212 80.5412 19.2386C81.1321 18.8523 81.8215 18.6591 82.6094 18.6591C83.0639 18.6591 83.5128 18.7348 83.956 18.8864C84.3991 19.0379 84.8026 19.2841 85.1662 19.625C85.5298 19.9621 85.8196 20.4091 86.0355 20.9659C86.2514 21.5227 86.3594 22.2083 86.3594 23.0227V23.5909H79.6321V22.4318H84.9957C84.9957 21.9394 84.8973 21.5 84.7003 21.1136C84.5071 20.7273 84.2306 20.4223 83.8707 20.1989C83.5147 19.9754 83.0942 19.8636 82.6094 19.8636C82.0753 19.8636 81.6132 19.9962 81.223 20.2614C80.8366 20.5227 80.5393 20.8636 80.331 21.2841C80.1226 21.7045 80.0185 22.1553 80.0185 22.6364V23.4091C80.0185 24.0682 80.1321 24.6269 80.3594 25.0852C80.5904 25.5398 80.9105 25.8864 81.3196 26.125C81.7287 26.3598 82.2041 26.4773 82.7457 26.4773C83.098 26.4773 83.4162 26.428 83.7003 26.3295C83.9882 26.2273 84.2363 26.0758 84.4446 25.875C84.6529 25.6705 84.8139 25.4167 84.9276 25.1136L86.223 25.4773C86.0866 25.9167 85.8575 26.303 85.5355 26.6364C85.2135 26.9659 84.8158 27.2235 84.3423 27.4091C83.8688 27.5909 83.3366 27.6818 82.7457 27.6818Z" fill="white"/>
</svg>
