<svg width="66" height="65" viewBox="0 0 66 65" fill="none" xmlns="http://www.w3.org/2000/svg">
<g clip-path="url(#clip0_21_348)">
<path d="M55.4531 12.5527C53.5892 5.4062 46.3138 1.07711 39.1316 2.86783L13.1141 9.35472C10.18 10.0863 7.71241 11.727 5.93624 13.9004L14.5122 48.2968C16.1148 54.7245 22.6241 58.6345 29.05 57.0323L60.2507 49.2531C62.1805 46.2365 62.9121 42.4626 61.9776 38.7145L55.4909 12.6978C55.4788 12.6493 55.4667 12.6008 55.4531 12.5527ZM46.9276 28.1251C45.9674 29.1678 45.0367 30.2385 44.145 31.3366L44.6669 31.6154L50.5663 34.7711C51.4839 35.2619 51.8567 36.357 51.3978 37.2151L50.6154 38.6804L50.4845 38.9239C50.0256 39.782 48.9086 40.0798 47.9907 39.5875L41.2032 35.9562L40.8745 35.7806C40.4873 36.3649 40.1123 36.959 39.7505 37.5612C39.7221 37.6085 39.6917 37.6547 39.6603 37.6963C39.3709 38.1049 38.9598 38.3668 38.5172 38.4771C37.7867 38.6593 36.9671 38.4322 36.4451 37.7719L31.5238 31.5407C31.2418 31.1844 30.6659 31.3151 30.5762 31.7625C30.2122 33.5886 28.2744 34.8815 26.3106 34.1782C25.9641 34.0538 25.6202 33.9206 25.2668 33.8203C22.2518 32.9622 19.7754 30.5323 19.024 27.2408C18.6576 25.6355 18.7593 24.0228 19.2399 22.5475C20.1364 19.7902 22.3585 17.5201 25.326 16.7029C27.6232 16.0706 29.9426 16.3986 31.8762 17.433C32.1209 17.5619 32.3595 17.7053 32.5893 17.8588C32.7475 17.5635 32.9231 17.2798 33.1153 17.0049C34.3544 15.2342 36.2407 13.9027 38.539 13.4102C43.0912 12.4345 47.679 15.1977 48.9441 19.6779C49.6665 22.2329 49.1974 24.8257 47.8834 26.8839C47.6021 27.3243 47.2821 27.7389 46.9276 28.1251Z" fill="#E0A8C4"/>
<path d="M41.2032 35.9561C40.7573 36.5696 40.3254 37.194 39.9072 37.8279C39.52 38.4122 39.1461 39.0045 38.7843 39.6066C38.492 40.0932 38.0406 40.4006 37.5495 40.523C36.8191 40.7051 35.9994 40.478 35.4774 39.8178L30.5565 33.588C30.2742 33.2302 29.6986 33.3625 29.6101 33.8079C29.2445 35.6344 27.3071 36.9288 25.3445 36.2237C24.9979 36.0992 24.6544 35.9675 24.3006 35.8658C21.2846 35.0096 18.8097 32.5793 18.0582 29.2878C17.5135 26.8962 18.004 24.4864 19.2399 22.5475C18.7593 24.0228 18.6576 25.6354 19.024 27.2408C19.7755 30.5322 22.2519 32.9622 25.2668 33.8203C25.6202 33.9205 25.9641 34.0537 26.3106 34.1782C28.2744 34.8814 30.2122 33.5886 30.5762 31.7624C30.6659 31.3151 31.2418 31.1844 31.5238 31.5407L36.4451 37.7719C36.9671 38.4322 37.7867 38.6593 38.5172 38.4771C38.9598 38.3668 39.371 38.1049 39.6603 37.6963C39.6917 37.6547 39.7221 37.6085 39.7505 37.5611C40.1123 36.959 40.4873 36.3648 40.8745 35.7805L41.2032 35.9561Z" fill="#694D6B"/>
<path d="M47.8834 26.8838C47.4876 28.1046 46.8307 29.2278 45.9615 30.1705C45.5233 30.6468 45.0911 31.1281 44.6669 31.6154L44.145 31.3366C45.0367 30.2385 45.9674 29.1678 46.9276 28.1251C47.2821 27.7389 47.6021 27.3242 47.8834 26.8838Z" fill="#694D6B"/>
<path d="M50.6155 38.6803C50.5907 38.8781 50.5304 39.075 50.4318 39.2606L49.5185 40.9693C49.0581 41.8279 47.9426 42.1253 47.0235 41.6349L39.9073 37.8279L39.6604 37.6963C39.6918 37.6547 39.7222 37.6085 39.7506 37.5611C40.1124 36.959 40.4874 36.3648 40.8746 35.7805L41.2033 35.9561L47.9908 39.5875C48.9088 40.0798 50.0257 39.782 50.4846 38.9238L50.6155 38.6803Z" fill="#694D6B"/>
<path d="M51.3979 37.2151L50.6155 38.6804L50.4846 38.9239C50.0257 39.782 48.9088 40.0798 47.9908 39.5875L41.2033 35.9562L40.8746 35.7806C40.4874 36.3649 40.1124 36.959 39.7506 37.5611C39.7222 37.6085 39.6918 37.6547 39.6604 37.6963C39.3711 38.1049 38.9599 38.3668 38.5173 38.4771C37.7868 38.6593 36.9672 38.4322 36.4452 37.7719L31.5239 31.5407C31.2419 31.1844 30.666 31.3151 30.5763 31.7625C30.2123 33.5886 28.2745 34.8815 26.3107 34.1782C25.9642 34.0538 25.6203 33.9206 25.2669 33.8203C22.252 32.9622 19.7756 30.5323 19.0241 27.2408C18.6577 25.6355 18.7595 24.0228 19.24 22.5475C20.1365 19.7902 22.3586 17.5201 25.3261 16.7029C27.6233 16.0706 29.9427 16.3986 31.8764 17.433C32.121 17.5619 32.3596 17.7053 32.5894 17.8588C32.7476 17.5634 32.9232 17.2798 33.1154 17.0049C34.3545 15.2342 36.2408 13.9027 38.5391 13.4102C43.0913 12.4345 47.6791 15.1977 48.9442 19.6779C49.6666 22.2328 49.1975 24.8257 47.8836 26.8838C47.6022 27.3243 47.2822 27.7389 46.9278 28.1251C45.9675 29.1678 45.0368 30.2385 44.1451 31.3366L44.667 31.6154L50.5664 34.7711C51.484 35.2619 51.8569 36.357 51.3979 37.2151Z" fill="white"/>
<path d="M44.9509 22.1014C45.4357 22.3926 45.5925 23.0216 45.3009 23.5048C45.1552 23.7472 44.9263 23.9073 44.6717 23.9708C44.4171 24.0343 44.1398 24.0004 43.8975 23.8547L41.4871 22.4064L40.0389 24.8168C39.8932 25.0591 39.6628 25.2196 39.4082 25.2831C39.1551 25.3462 38.8763 25.3127 38.634 25.1671C38.1496 24.8773 37.9928 24.2484 38.284 23.7636L39.7323 21.3532L37.3219 19.9049C36.8372 19.6137 36.6804 18.9847 36.9717 18.5C37.2633 18.0167 37.8922 17.8599 38.3766 18.1497L40.7869 19.598L42.2352 17.1876C42.5268 16.7044 43.1542 16.548 43.6386 16.8377C44.1233 17.129 44.2801 17.7579 43.9889 18.2427L42.5406 20.6531L44.9509 22.1014Z" fill="#B32CAB"/>
<path d="M60.2508 49.2531C58.4576 52.0554 55.6309 54.2058 52.1482 55.0741L26.1307 61.561C18.9 63.3638 11.5747 58.9635 9.77141 51.731L3.28471 25.7143C2.21304 21.4161 3.33367 17.0848 5.93633 13.9004L14.5123 48.2969C16.1149 54.7245 22.6242 58.6345 29.0501 57.0323L60.2508 49.2531Z" fill="#694D6B"/>
</g>
<defs>
<clipPath id="clip0_21_348">
<rect width="53.8045" height="53.8045" fill="white" transform="translate(0.0197754 12.6195) rotate(-14)"/>
</clipPath>
</defs>
</svg>
